<mxfile host="app.diagrams.net" modified="2023-08-21T09:49:53.041Z" agent="Mozilla/5.0 (Windows NT 10.0; Win64; x64) AppleWebKit/537.36 (KHTML, like Gecko) Chrome/115.0.0.0 Safari/537.36" version="21.6.8" etag="NycF7EqNQVVK8u9mpD7A" type="device">
  <diagram id="B8KBv2zFd8jWTs9i-mNp" name="Page-1">
    <mxGraphModel dx="2107" dy="683" grid="1" gridSize="10" guides="1" tooltips="1" connect="1" arrows="1" fold="1" page="1" pageScale="1" pageWidth="850" pageHeight="1100" math="0" shadow="0">
      <root>
        <mxCell id="0" />
        <mxCell id="1" parent="0" />
        <mxCell id="YcGbDRL9qxOUymfW_lWf-179" value="" style="rounded=0;whiteSpace=wrap;html=1;" vertex="1" parent="1">
          <mxGeometry x="-210" y="80" width="1030" height="2420" as="geometry" />
        </mxCell>
        <mxCell id="YcGbDRL9qxOUymfW_lWf-195" value="" style="rounded=0;whiteSpace=wrap;html=1;" vertex="1" parent="1">
          <mxGeometry x="-190" y="110" width="990" height="2350" as="geometry" />
        </mxCell>
        <mxCell id="YcGbDRL9qxOUymfW_lWf-180" value="" style="rounded=0;whiteSpace=wrap;html=1;" vertex="1" parent="1">
          <mxGeometry x="-160" y="150" width="930" height="110" as="geometry" />
        </mxCell>
        <mxCell id="YcGbDRL9qxOUymfW_lWf-181" value="" style="rounded=0;whiteSpace=wrap;html=1;" vertex="1" parent="1">
          <mxGeometry x="-140" y="175" width="450" height="60" as="geometry" />
        </mxCell>
        <mxCell id="YcGbDRL9qxOUymfW_lWf-182" value="" style="rounded=0;whiteSpace=wrap;html=1;" vertex="1" parent="1">
          <mxGeometry x="320" y="175" width="420" height="60" as="geometry" />
        </mxCell>
        <mxCell id="YcGbDRL9qxOUymfW_lWf-183" value="Mnen" style="rounded=1;whiteSpace=wrap;html=1;arcSize=0;" vertex="1" parent="1">
          <mxGeometry x="-70" y="195" width="40" height="20" as="geometry" />
        </mxCell>
        <mxCell id="YcGbDRL9qxOUymfW_lWf-184" value="Women" style="rounded=1;whiteSpace=wrap;html=1;arcSize=0;" vertex="1" parent="1">
          <mxGeometry x="-20" y="195" width="40" height="20" as="geometry" />
        </mxCell>
        <mxCell id="YcGbDRL9qxOUymfW_lWf-185" value="Kind" style="rounded=1;whiteSpace=wrap;html=1;arcSize=0;" vertex="1" parent="1">
          <mxGeometry x="40" y="195" width="40" height="20" as="geometry" />
        </mxCell>
        <mxCell id="YcGbDRL9qxOUymfW_lWf-186" value="H&amp;amp;L" style="rounded=1;whiteSpace=wrap;html=1;arcSize=0;" vertex="1" parent="1">
          <mxGeometry x="90" y="195" width="40" height="20" as="geometry" />
        </mxCell>
        <mxCell id="YcGbDRL9qxOUymfW_lWf-187" value="Beauty" style="rounded=1;whiteSpace=wrap;html=1;arcSize=0;" vertex="1" parent="1">
          <mxGeometry x="150" y="195" width="40" height="20" as="geometry" />
        </mxCell>
        <mxCell id="YcGbDRL9qxOUymfW_lWf-188" value="studio" style="rounded=1;whiteSpace=wrap;html=1;arcSize=0;" vertex="1" parent="1">
          <mxGeometry x="210" y="195" width="40" height="20" as="geometry" />
        </mxCell>
        <mxCell id="YcGbDRL9qxOUymfW_lWf-189" value="Logo" style="rounded=1;whiteSpace=wrap;html=1;arcSize=0;" vertex="1" parent="1">
          <mxGeometry x="-120" y="195" width="40" height="20" as="geometry" />
        </mxCell>
        <mxCell id="YcGbDRL9qxOUymfW_lWf-190" value="Profile" style="rounded=1;whiteSpace=wrap;html=1;arcSize=0;" vertex="1" parent="1">
          <mxGeometry x="590" y="195" width="40" height="20" as="geometry" />
        </mxCell>
        <mxCell id="YcGbDRL9qxOUymfW_lWf-191" value="Wishlist" style="rounded=1;whiteSpace=wrap;html=1;arcSize=0;" vertex="1" parent="1">
          <mxGeometry x="640" y="195" width="40" height="20" as="geometry" />
        </mxCell>
        <mxCell id="YcGbDRL9qxOUymfW_lWf-192" value="Bag" style="rounded=1;whiteSpace=wrap;html=1;arcSize=0;" vertex="1" parent="1">
          <mxGeometry x="690" y="195" width="40" height="20" as="geometry" />
        </mxCell>
        <mxCell id="YcGbDRL9qxOUymfW_lWf-193" value="" style="rounded=0;whiteSpace=wrap;html=1;" vertex="1" parent="1">
          <mxGeometry x="330" y="190" width="250" height="30" as="geometry" />
        </mxCell>
        <mxCell id="YcGbDRL9qxOUymfW_lWf-194" value="" style="rounded=1;whiteSpace=wrap;html=1;arcSize=0;" vertex="1" parent="1">
          <mxGeometry x="340" y="200" width="40" height="10" as="geometry" />
        </mxCell>
        <mxCell id="YcGbDRL9qxOUymfW_lWf-196" value="" style="rounded=0;whiteSpace=wrap;html=1;" vertex="1" parent="1">
          <mxGeometry x="-160" y="280" width="930" height="1380" as="geometry" />
        </mxCell>
        <mxCell id="YcGbDRL9qxOUymfW_lWf-197" value="" style="rounded=0;whiteSpace=wrap;html=1;" vertex="1" parent="1">
          <mxGeometry x="-140" y="310" width="890" height="40" as="geometry" />
        </mxCell>
        <mxCell id="YcGbDRL9qxOUymfW_lWf-198" value="Home" style="rounded=0;whiteSpace=wrap;html=1;" vertex="1" parent="1">
          <mxGeometry x="-120" y="320" width="60" height="20" as="geometry" />
        </mxCell>
        <mxCell id="YcGbDRL9qxOUymfW_lWf-199" value="Clothing" style="rounded=0;whiteSpace=wrap;html=1;" vertex="1" parent="1">
          <mxGeometry x="-50" y="320" width="60" height="20" as="geometry" />
        </mxCell>
        <mxCell id="YcGbDRL9qxOUymfW_lWf-200" value="Shirts" style="rounded=0;whiteSpace=wrap;html=1;" vertex="1" parent="1">
          <mxGeometry x="30" y="320" width="60" height="20" as="geometry" />
        </mxCell>
        <mxCell id="YcGbDRL9qxOUymfW_lWf-201" value="Shirt" style="rounded=0;whiteSpace=wrap;html=1;" vertex="1" parent="1">
          <mxGeometry x="100" y="320" width="60" height="20" as="geometry" />
        </mxCell>
        <mxCell id="YcGbDRL9qxOUymfW_lWf-206" value="" style="rounded=0;whiteSpace=wrap;html=1;" vertex="1" parent="1">
          <mxGeometry x="-140" y="370" width="890" height="50" as="geometry" />
        </mxCell>
        <mxCell id="YcGbDRL9qxOUymfW_lWf-207" value="Shirt" style="rounded=0;whiteSpace=wrap;html=1;" vertex="1" parent="1">
          <mxGeometry x="-120" y="385" width="50" height="20" as="geometry" />
        </mxCell>
        <mxCell id="YcGbDRL9qxOUymfW_lWf-208" value="121861&lt;span style=&quot;color: rgb(255, 105, 180); font-family: Assistant, -apple-system, BlinkMacSystemFont, &amp;quot;Segoe UI&amp;quot;, Roboto, Helvetica, Arial, sans-serif; font-size: 16px; text-align: start; background-color: rgba(112, 187, 255, 0.03);&quot;&gt; &lt;/span&gt;&lt;span style=&quot;color: rgb(255, 105, 180); font-family: Assistant, -apple-system, BlinkMacSystemFont, &amp;quot;Segoe UI&amp;quot;, Roboto, Helvetica, Arial, sans-serif; font-size: 16px; text-align: start; background-color: rgba(112, 187, 255, 0.03);&quot;&gt;items&lt;/span&gt;" style="rounded=0;whiteSpace=wrap;html=1;" vertex="1" parent="1">
          <mxGeometry x="-60" y="385" width="120" height="20" as="geometry" />
        </mxCell>
        <mxCell id="YcGbDRL9qxOUymfW_lWf-210" value="" style="rounded=0;whiteSpace=wrap;html=1;" vertex="1" parent="1">
          <mxGeometry x="-140" y="460" width="890" height="110" as="geometry" />
        </mxCell>
        <mxCell id="YcGbDRL9qxOUymfW_lWf-211" value="&lt;font style=&quot;font-size: 24px;&quot;&gt;filter&lt;/font&gt;" style="rounded=0;whiteSpace=wrap;html=1;" vertex="1" parent="1">
          <mxGeometry x="-130" y="470" width="240" height="90" as="geometry" />
        </mxCell>
        <mxCell id="YcGbDRL9qxOUymfW_lWf-212" value="" style="rounded=0;whiteSpace=wrap;html=1;" vertex="1" parent="1">
          <mxGeometry x="120" y="470" width="610" height="90" as="geometry" />
        </mxCell>
        <mxCell id="YcGbDRL9qxOUymfW_lWf-213" value="" style="rounded=0;whiteSpace=wrap;html=1;" vertex="1" parent="1">
          <mxGeometry x="130" y="485" width="420" height="60" as="geometry" />
        </mxCell>
        <mxCell id="YcGbDRL9qxOUymfW_lWf-214" value="" style="rounded=0;whiteSpace=wrap;html=1;" vertex="1" parent="1">
          <mxGeometry x="560" y="485" width="160" height="60" as="geometry" />
        </mxCell>
        <mxCell id="YcGbDRL9qxOUymfW_lWf-215" value="" style="rounded=0;whiteSpace=wrap;html=1;" vertex="1" parent="1">
          <mxGeometry x="155" y="505" width="30" height="20" as="geometry" />
        </mxCell>
        <mxCell id="YcGbDRL9qxOUymfW_lWf-216" value="" style="rounded=0;whiteSpace=wrap;html=1;" vertex="1" parent="1">
          <mxGeometry x="200" y="505" width="30" height="20" as="geometry" />
        </mxCell>
        <mxCell id="YcGbDRL9qxOUymfW_lWf-217" value="" style="rounded=0;whiteSpace=wrap;html=1;" vertex="1" parent="1">
          <mxGeometry x="240" y="505" width="30" height="20" as="geometry" />
        </mxCell>
        <mxCell id="YcGbDRL9qxOUymfW_lWf-218" value="" style="rounded=0;whiteSpace=wrap;html=1;" vertex="1" parent="1">
          <mxGeometry x="280" y="505" width="30" height="20" as="geometry" />
        </mxCell>
        <mxCell id="YcGbDRL9qxOUymfW_lWf-219" value="" style="rounded=0;whiteSpace=wrap;html=1;" vertex="1" parent="1">
          <mxGeometry x="325" y="505" width="30" height="20" as="geometry" />
        </mxCell>
        <mxCell id="YcGbDRL9qxOUymfW_lWf-220" value="" style="rounded=0;whiteSpace=wrap;html=1;" vertex="1" parent="1">
          <mxGeometry x="370" y="505" width="30" height="20" as="geometry" />
        </mxCell>
        <mxCell id="YcGbDRL9qxOUymfW_lWf-221" value="" style="rounded=0;whiteSpace=wrap;html=1;" vertex="1" parent="1">
          <mxGeometry x="410" y="505" width="30" height="20" as="geometry" />
        </mxCell>
        <mxCell id="YcGbDRL9qxOUymfW_lWf-222" value="" style="rounded=0;whiteSpace=wrap;html=1;" vertex="1" parent="1">
          <mxGeometry x="450" y="505" width="30" height="20" as="geometry" />
        </mxCell>
        <mxCell id="YcGbDRL9qxOUymfW_lWf-223" value="" style="rounded=0;whiteSpace=wrap;html=1;" vertex="1" parent="1">
          <mxGeometry x="570" y="495" width="140" height="40" as="geometry" />
        </mxCell>
        <mxCell id="YcGbDRL9qxOUymfW_lWf-224" value="" style="rounded=0;whiteSpace=wrap;html=1;" vertex="1" parent="1">
          <mxGeometry x="580" y="507.5" width="20" height="15" as="geometry" />
        </mxCell>
        <mxCell id="YcGbDRL9qxOUymfW_lWf-225" value="" style="rounded=0;whiteSpace=wrap;html=1;" vertex="1" parent="1">
          <mxGeometry x="610" y="507.5" width="60" height="15" as="geometry" />
        </mxCell>
        <mxCell id="YcGbDRL9qxOUymfW_lWf-226" value="" style="rounded=0;whiteSpace=wrap;html=1;" vertex="1" parent="1">
          <mxGeometry x="680" y="507.5" width="20" height="15" as="geometry" />
        </mxCell>
        <mxCell id="YcGbDRL9qxOUymfW_lWf-228" value="" style="rounded=0;whiteSpace=wrap;html=1;" vertex="1" parent="1">
          <mxGeometry x="-140" y="580" width="890" height="1050" as="geometry" />
        </mxCell>
        <mxCell id="YcGbDRL9qxOUymfW_lWf-229" value="" style="rounded=0;whiteSpace=wrap;html=1;" vertex="1" parent="1">
          <mxGeometry x="-130" y="590" width="240" height="1020" as="geometry" />
        </mxCell>
        <mxCell id="YcGbDRL9qxOUymfW_lWf-230" value="" style="rounded=0;whiteSpace=wrap;html=1;" vertex="1" parent="1">
          <mxGeometry x="120" y="590" width="610" height="1025" as="geometry" />
        </mxCell>
        <mxCell id="YcGbDRL9qxOUymfW_lWf-231" value="men&lt;br&gt;women&lt;br&gt;boys&lt;br&gt;girl" style="rounded=0;whiteSpace=wrap;html=1;" vertex="1" parent="1">
          <mxGeometry x="-120" y="600" width="210" height="120" as="geometry" />
        </mxCell>
        <mxCell id="YcGbDRL9qxOUymfW_lWf-233" value="" style="rounded=0;whiteSpace=wrap;html=1;" vertex="1" parent="1">
          <mxGeometry x="-120" y="730" width="210" height="260" as="geometry" />
        </mxCell>
        <mxCell id="YcGbDRL9qxOUymfW_lWf-234" value="" style="rounded=0;whiteSpace=wrap;html=1;" vertex="1" parent="1">
          <mxGeometry x="-110" y="740" width="190" height="50" as="geometry" />
        </mxCell>
        <mxCell id="YcGbDRL9qxOUymfW_lWf-235" value="&lt;div&gt;BRAND Roadster(3102)&amp;nbsp;&lt;/div&gt;&lt;div&gt;Indian Terrain(2519)&lt;/div&gt;&lt;div&gt;&amp;nbsp;HIGHLANDER(2163)&amp;nbsp;&lt;/div&gt;&lt;div&gt;Louis Philippe(2137)&amp;nbsp;&lt;/div&gt;&lt;div&gt;Allen Solly(2123)&lt;/div&gt;&lt;div&gt;&amp;nbsp;Van Heusen(2105)&amp;nbsp;&lt;/div&gt;&lt;div&gt;Arrow(1935) Gini and Jony(1914)&amp;nbsp;&lt;/div&gt;" style="rounded=0;whiteSpace=wrap;html=1;" vertex="1" parent="1">
          <mxGeometry x="-110" y="800" width="190" height="130" as="geometry" />
        </mxCell>
        <mxCell id="YcGbDRL9qxOUymfW_lWf-236" value="Brand" style="rounded=0;whiteSpace=wrap;html=1;" vertex="1" parent="1">
          <mxGeometry x="-100" y="750" width="40" height="30" as="geometry" />
        </mxCell>
        <mxCell id="YcGbDRL9qxOUymfW_lWf-237" value="Search" style="rounded=0;whiteSpace=wrap;html=1;" vertex="1" parent="1">
          <mxGeometry x="30" y="750" width="40" height="30" as="geometry" />
        </mxCell>
        <mxCell id="YcGbDRL9qxOUymfW_lWf-238" value="+ 990 more" style="rounded=0;whiteSpace=wrap;html=1;" vertex="1" parent="1">
          <mxGeometry x="-110" y="940" width="190" height="30" as="geometry" />
        </mxCell>
        <mxCell id="YcGbDRL9qxOUymfW_lWf-239" value="" style="rounded=0;whiteSpace=wrap;html=1;" vertex="1" parent="1">
          <mxGeometry x="-120" y="1010" width="210" height="140" as="geometry" />
        </mxCell>
        <mxCell id="YcGbDRL9qxOUymfW_lWf-240" value="priice" style="rounded=0;whiteSpace=wrap;html=1;" vertex="1" parent="1">
          <mxGeometry x="-110" y="1020" width="90" height="20" as="geometry" />
        </mxCell>
        <mxCell id="YcGbDRL9qxOUymfW_lWf-241" value="Rs. 212 to Rs. 12909(121683)&#xa;Rs. 12909 to Rs. 25606(150)&#xa;Rs. 25606 to Rs. 38303(14)&#xa;Rs. 38303 to Rs. 51000(1)" style="rounded=0;whiteSpace=wrap;html=1;" vertex="1" parent="1">
          <mxGeometry x="-110" y="1050" width="190" height="80" as="geometry" />
        </mxCell>
        <mxCell id="YcGbDRL9qxOUymfW_lWf-242" value="" style="rounded=0;whiteSpace=wrap;html=1;" vertex="1" parent="1">
          <mxGeometry x="-120" y="1160" width="200" height="200" as="geometry" />
        </mxCell>
        <mxCell id="YcGbDRL9qxOUymfW_lWf-243" value="color" style="rounded=0;whiteSpace=wrap;html=1;" vertex="1" parent="1">
          <mxGeometry x="-110" y="1170" width="120" height="20" as="geometry" />
        </mxCell>
        <mxCell id="YcGbDRL9qxOUymfW_lWf-244" value="&lt;div&gt;Blue (23443)&lt;/div&gt;&lt;div&gt;White (16038)&lt;/div&gt;&lt;div&gt;Navy Blue (11404)&lt;/div&gt;&lt;div&gt;Green (9384)&lt;/div&gt;&lt;div&gt;Black (8916)&lt;/div&gt;&lt;div&gt;Pink (5926)&lt;/div&gt;&lt;div&gt;Grey (5673)&lt;/div&gt;" style="rounded=0;whiteSpace=wrap;html=1;" vertex="1" parent="1">
          <mxGeometry x="-110" y="1200" width="170" height="110" as="geometry" />
        </mxCell>
        <mxCell id="YcGbDRL9qxOUymfW_lWf-245" value="+ 38 more" style="rounded=0;whiteSpace=wrap;html=1;" vertex="1" parent="1">
          <mxGeometry x="-110" y="1320" width="120" height="20" as="geometry" />
        </mxCell>
        <mxCell id="YcGbDRL9qxOUymfW_lWf-246" value="" style="rounded=0;whiteSpace=wrap;html=1;" vertex="1" parent="1">
          <mxGeometry x="-120" y="1380" width="210" height="200" as="geometry" />
        </mxCell>
        <mxCell id="YcGbDRL9qxOUymfW_lWf-247" value="discount" style="rounded=0;whiteSpace=wrap;html=1;" vertex="1" parent="1">
          <mxGeometry x="-110" y="1390" width="120" height="20" as="geometry" />
        </mxCell>
        <mxCell id="YcGbDRL9qxOUymfW_lWf-248" value="&lt;div&gt;&lt;div&gt;10% and above&lt;/div&gt;&lt;div&gt;20% and above&lt;/div&gt;&lt;div&gt;30% and above&lt;/div&gt;&lt;div&gt;40% and above&lt;/div&gt;&lt;div&gt;50% and above&lt;/div&gt;&lt;div&gt;60% and above&lt;/div&gt;&lt;div&gt;70% and above&lt;/div&gt;&lt;div&gt;80% and above&lt;/div&gt;&lt;/div&gt;" style="rounded=0;whiteSpace=wrap;html=1;" vertex="1" parent="1">
          <mxGeometry x="-110" y="1430" width="190" height="130" as="geometry" />
        </mxCell>
        <mxCell id="YcGbDRL9qxOUymfW_lWf-249" value="" style="rounded=0;whiteSpace=wrap;html=1;" vertex="1" parent="1">
          <mxGeometry x="130" y="600" width="590" height="850" as="geometry" />
        </mxCell>
        <mxCell id="YcGbDRL9qxOUymfW_lWf-396" value="" style="rounded=0;whiteSpace=wrap;html=1;" vertex="1" parent="1">
          <mxGeometry x="140" y="610" width="110" height="180" as="geometry" />
        </mxCell>
        <mxCell id="YcGbDRL9qxOUymfW_lWf-397" value="" style="rounded=0;whiteSpace=wrap;html=1;" vertex="1" parent="1">
          <mxGeometry x="150" y="620" width="90" height="90" as="geometry" />
        </mxCell>
        <mxCell id="YcGbDRL9qxOUymfW_lWf-398" value="" style="rounded=0;whiteSpace=wrap;html=1;" vertex="1" parent="1">
          <mxGeometry x="155" y="720" width="80" height="10" as="geometry" />
        </mxCell>
        <mxCell id="YcGbDRL9qxOUymfW_lWf-399" value="" style="rounded=0;whiteSpace=wrap;html=1;" vertex="1" parent="1">
          <mxGeometry x="155" y="740" width="80" height="10" as="geometry" />
        </mxCell>
        <mxCell id="YcGbDRL9qxOUymfW_lWf-400" value="" style="rounded=0;whiteSpace=wrap;html=1;" vertex="1" parent="1">
          <mxGeometry x="155" y="760" width="80" height="20" as="geometry" />
        </mxCell>
        <mxCell id="YcGbDRL9qxOUymfW_lWf-401" value="" style="rounded=0;whiteSpace=wrap;html=1;" vertex="1" parent="1">
          <mxGeometry x="160" y="765" width="20" height="10" as="geometry" />
        </mxCell>
        <mxCell id="YcGbDRL9qxOUymfW_lWf-402" value="" style="rounded=0;whiteSpace=wrap;html=1;" vertex="1" parent="1">
          <mxGeometry x="190" y="765" width="10" height="10" as="geometry" />
        </mxCell>
        <mxCell id="YcGbDRL9qxOUymfW_lWf-403" value="" style="rounded=0;whiteSpace=wrap;html=1;" vertex="1" parent="1">
          <mxGeometry x="210" y="765" width="10" height="10" as="geometry" />
        </mxCell>
        <mxCell id="YcGbDRL9qxOUymfW_lWf-428" value="" style="rounded=0;whiteSpace=wrap;html=1;" vertex="1" parent="1">
          <mxGeometry x="585" y="610" width="110" height="180" as="geometry" />
        </mxCell>
        <mxCell id="YcGbDRL9qxOUymfW_lWf-429" value="" style="rounded=0;whiteSpace=wrap;html=1;" vertex="1" parent="1">
          <mxGeometry x="595" y="620" width="90" height="90" as="geometry" />
        </mxCell>
        <mxCell id="YcGbDRL9qxOUymfW_lWf-430" value="" style="rounded=0;whiteSpace=wrap;html=1;" vertex="1" parent="1">
          <mxGeometry x="600" y="720" width="80" height="10" as="geometry" />
        </mxCell>
        <mxCell id="YcGbDRL9qxOUymfW_lWf-431" value="" style="rounded=0;whiteSpace=wrap;html=1;" vertex="1" parent="1">
          <mxGeometry x="600" y="740" width="80" height="10" as="geometry" />
        </mxCell>
        <mxCell id="YcGbDRL9qxOUymfW_lWf-432" value="" style="rounded=0;whiteSpace=wrap;html=1;" vertex="1" parent="1">
          <mxGeometry x="600" y="760" width="80" height="20" as="geometry" />
        </mxCell>
        <mxCell id="YcGbDRL9qxOUymfW_lWf-433" value="" style="rounded=0;whiteSpace=wrap;html=1;" vertex="1" parent="1">
          <mxGeometry x="605" y="765" width="20" height="10" as="geometry" />
        </mxCell>
        <mxCell id="YcGbDRL9qxOUymfW_lWf-434" value="" style="rounded=0;whiteSpace=wrap;html=1;" vertex="1" parent="1">
          <mxGeometry x="635" y="765" width="10" height="10" as="geometry" />
        </mxCell>
        <mxCell id="YcGbDRL9qxOUymfW_lWf-435" value="" style="rounded=0;whiteSpace=wrap;html=1;" vertex="1" parent="1">
          <mxGeometry x="655" y="765" width="10" height="10" as="geometry" />
        </mxCell>
        <mxCell id="YcGbDRL9qxOUymfW_lWf-436" value="" style="rounded=0;whiteSpace=wrap;html=1;" vertex="1" parent="1">
          <mxGeometry x="290" y="610" width="110" height="180" as="geometry" />
        </mxCell>
        <mxCell id="YcGbDRL9qxOUymfW_lWf-437" value="" style="rounded=0;whiteSpace=wrap;html=1;" vertex="1" parent="1">
          <mxGeometry x="300" y="620" width="90" height="90" as="geometry" />
        </mxCell>
        <mxCell id="YcGbDRL9qxOUymfW_lWf-438" value="" style="rounded=0;whiteSpace=wrap;html=1;" vertex="1" parent="1">
          <mxGeometry x="305" y="720" width="80" height="10" as="geometry" />
        </mxCell>
        <mxCell id="YcGbDRL9qxOUymfW_lWf-439" value="" style="rounded=0;whiteSpace=wrap;html=1;" vertex="1" parent="1">
          <mxGeometry x="305" y="740" width="80" height="10" as="geometry" />
        </mxCell>
        <mxCell id="YcGbDRL9qxOUymfW_lWf-440" value="" style="rounded=0;whiteSpace=wrap;html=1;" vertex="1" parent="1">
          <mxGeometry x="305" y="760" width="80" height="20" as="geometry" />
        </mxCell>
        <mxCell id="YcGbDRL9qxOUymfW_lWf-441" value="" style="rounded=0;whiteSpace=wrap;html=1;" vertex="1" parent="1">
          <mxGeometry x="310" y="765" width="20" height="10" as="geometry" />
        </mxCell>
        <mxCell id="YcGbDRL9qxOUymfW_lWf-442" value="" style="rounded=0;whiteSpace=wrap;html=1;" vertex="1" parent="1">
          <mxGeometry x="340" y="765" width="10" height="10" as="geometry" />
        </mxCell>
        <mxCell id="YcGbDRL9qxOUymfW_lWf-443" value="" style="rounded=0;whiteSpace=wrap;html=1;" vertex="1" parent="1">
          <mxGeometry x="360" y="765" width="10" height="10" as="geometry" />
        </mxCell>
        <mxCell id="YcGbDRL9qxOUymfW_lWf-444" value="" style="rounded=0;whiteSpace=wrap;html=1;" vertex="1" parent="1">
          <mxGeometry x="450" y="610" width="110" height="180" as="geometry" />
        </mxCell>
        <mxCell id="YcGbDRL9qxOUymfW_lWf-445" value="" style="rounded=0;whiteSpace=wrap;html=1;" vertex="1" parent="1">
          <mxGeometry x="460" y="620" width="90" height="90" as="geometry" />
        </mxCell>
        <mxCell id="YcGbDRL9qxOUymfW_lWf-446" value="" style="rounded=0;whiteSpace=wrap;html=1;" vertex="1" parent="1">
          <mxGeometry x="465" y="720" width="80" height="10" as="geometry" />
        </mxCell>
        <mxCell id="YcGbDRL9qxOUymfW_lWf-447" value="" style="rounded=0;whiteSpace=wrap;html=1;" vertex="1" parent="1">
          <mxGeometry x="465" y="740" width="80" height="10" as="geometry" />
        </mxCell>
        <mxCell id="YcGbDRL9qxOUymfW_lWf-448" value="" style="rounded=0;whiteSpace=wrap;html=1;" vertex="1" parent="1">
          <mxGeometry x="465" y="760" width="80" height="20" as="geometry" />
        </mxCell>
        <mxCell id="YcGbDRL9qxOUymfW_lWf-449" value="" style="rounded=0;whiteSpace=wrap;html=1;" vertex="1" parent="1">
          <mxGeometry x="470" y="765" width="20" height="10" as="geometry" />
        </mxCell>
        <mxCell id="YcGbDRL9qxOUymfW_lWf-450" value="" style="rounded=0;whiteSpace=wrap;html=1;" vertex="1" parent="1">
          <mxGeometry x="500" y="765" width="10" height="10" as="geometry" />
        </mxCell>
        <mxCell id="YcGbDRL9qxOUymfW_lWf-451" value="" style="rounded=0;whiteSpace=wrap;html=1;" vertex="1" parent="1">
          <mxGeometry x="520" y="765" width="10" height="10" as="geometry" />
        </mxCell>
        <mxCell id="YcGbDRL9qxOUymfW_lWf-452" value="" style="rounded=0;whiteSpace=wrap;html=1;" vertex="1" parent="1">
          <mxGeometry x="140" y="820" width="110" height="180" as="geometry" />
        </mxCell>
        <mxCell id="YcGbDRL9qxOUymfW_lWf-453" value="" style="rounded=0;whiteSpace=wrap;html=1;" vertex="1" parent="1">
          <mxGeometry x="150" y="830" width="90" height="90" as="geometry" />
        </mxCell>
        <mxCell id="YcGbDRL9qxOUymfW_lWf-454" value="" style="rounded=0;whiteSpace=wrap;html=1;" vertex="1" parent="1">
          <mxGeometry x="155" y="930" width="80" height="10" as="geometry" />
        </mxCell>
        <mxCell id="YcGbDRL9qxOUymfW_lWf-455" value="" style="rounded=0;whiteSpace=wrap;html=1;" vertex="1" parent="1">
          <mxGeometry x="155" y="950" width="80" height="10" as="geometry" />
        </mxCell>
        <mxCell id="YcGbDRL9qxOUymfW_lWf-456" value="" style="rounded=0;whiteSpace=wrap;html=1;" vertex="1" parent="1">
          <mxGeometry x="155" y="970" width="80" height="20" as="geometry" />
        </mxCell>
        <mxCell id="YcGbDRL9qxOUymfW_lWf-457" value="" style="rounded=0;whiteSpace=wrap;html=1;" vertex="1" parent="1">
          <mxGeometry x="160" y="975" width="20" height="10" as="geometry" />
        </mxCell>
        <mxCell id="YcGbDRL9qxOUymfW_lWf-458" value="" style="rounded=0;whiteSpace=wrap;html=1;" vertex="1" parent="1">
          <mxGeometry x="190" y="975" width="10" height="10" as="geometry" />
        </mxCell>
        <mxCell id="YcGbDRL9qxOUymfW_lWf-459" value="" style="rounded=0;whiteSpace=wrap;html=1;" vertex="1" parent="1">
          <mxGeometry x="210" y="975" width="10" height="10" as="geometry" />
        </mxCell>
        <mxCell id="YcGbDRL9qxOUymfW_lWf-460" value="" style="rounded=0;whiteSpace=wrap;html=1;" vertex="1" parent="1">
          <mxGeometry x="285" y="820" width="110" height="180" as="geometry" />
        </mxCell>
        <mxCell id="YcGbDRL9qxOUymfW_lWf-461" value="" style="rounded=0;whiteSpace=wrap;html=1;" vertex="1" parent="1">
          <mxGeometry x="295" y="830" width="90" height="90" as="geometry" />
        </mxCell>
        <mxCell id="YcGbDRL9qxOUymfW_lWf-462" value="" style="rounded=0;whiteSpace=wrap;html=1;" vertex="1" parent="1">
          <mxGeometry x="300" y="930" width="80" height="10" as="geometry" />
        </mxCell>
        <mxCell id="YcGbDRL9qxOUymfW_lWf-463" value="" style="rounded=0;whiteSpace=wrap;html=1;" vertex="1" parent="1">
          <mxGeometry x="300" y="950" width="80" height="10" as="geometry" />
        </mxCell>
        <mxCell id="YcGbDRL9qxOUymfW_lWf-464" value="" style="rounded=0;whiteSpace=wrap;html=1;" vertex="1" parent="1">
          <mxGeometry x="300" y="970" width="80" height="20" as="geometry" />
        </mxCell>
        <mxCell id="YcGbDRL9qxOUymfW_lWf-465" value="" style="rounded=0;whiteSpace=wrap;html=1;" vertex="1" parent="1">
          <mxGeometry x="305" y="975" width="20" height="10" as="geometry" />
        </mxCell>
        <mxCell id="YcGbDRL9qxOUymfW_lWf-466" value="" style="rounded=0;whiteSpace=wrap;html=1;" vertex="1" parent="1">
          <mxGeometry x="335" y="975" width="10" height="10" as="geometry" />
        </mxCell>
        <mxCell id="YcGbDRL9qxOUymfW_lWf-467" value="" style="rounded=0;whiteSpace=wrap;html=1;" vertex="1" parent="1">
          <mxGeometry x="355" y="975" width="10" height="10" as="geometry" />
        </mxCell>
        <mxCell id="YcGbDRL9qxOUymfW_lWf-468" value="" style="rounded=0;whiteSpace=wrap;html=1;" vertex="1" parent="1">
          <mxGeometry x="450" y="820" width="110" height="180" as="geometry" />
        </mxCell>
        <mxCell id="YcGbDRL9qxOUymfW_lWf-469" value="" style="rounded=0;whiteSpace=wrap;html=1;" vertex="1" parent="1">
          <mxGeometry x="460" y="830" width="90" height="90" as="geometry" />
        </mxCell>
        <mxCell id="YcGbDRL9qxOUymfW_lWf-470" value="" style="rounded=0;whiteSpace=wrap;html=1;" vertex="1" parent="1">
          <mxGeometry x="465" y="930" width="80" height="10" as="geometry" />
        </mxCell>
        <mxCell id="YcGbDRL9qxOUymfW_lWf-471" value="" style="rounded=0;whiteSpace=wrap;html=1;" vertex="1" parent="1">
          <mxGeometry x="465" y="950" width="80" height="10" as="geometry" />
        </mxCell>
        <mxCell id="YcGbDRL9qxOUymfW_lWf-472" value="" style="rounded=0;whiteSpace=wrap;html=1;" vertex="1" parent="1">
          <mxGeometry x="465" y="970" width="80" height="20" as="geometry" />
        </mxCell>
        <mxCell id="YcGbDRL9qxOUymfW_lWf-473" value="" style="rounded=0;whiteSpace=wrap;html=1;" vertex="1" parent="1">
          <mxGeometry x="470" y="975" width="20" height="10" as="geometry" />
        </mxCell>
        <mxCell id="YcGbDRL9qxOUymfW_lWf-474" value="" style="rounded=0;whiteSpace=wrap;html=1;" vertex="1" parent="1">
          <mxGeometry x="500" y="975" width="10" height="10" as="geometry" />
        </mxCell>
        <mxCell id="YcGbDRL9qxOUymfW_lWf-475" value="" style="rounded=0;whiteSpace=wrap;html=1;" vertex="1" parent="1">
          <mxGeometry x="520" y="975" width="10" height="10" as="geometry" />
        </mxCell>
        <mxCell id="YcGbDRL9qxOUymfW_lWf-476" value="" style="rounded=0;whiteSpace=wrap;html=1;" vertex="1" parent="1">
          <mxGeometry x="585" y="820" width="110" height="180" as="geometry" />
        </mxCell>
        <mxCell id="YcGbDRL9qxOUymfW_lWf-477" value="" style="rounded=0;whiteSpace=wrap;html=1;" vertex="1" parent="1">
          <mxGeometry x="595" y="830" width="90" height="90" as="geometry" />
        </mxCell>
        <mxCell id="YcGbDRL9qxOUymfW_lWf-478" value="" style="rounded=0;whiteSpace=wrap;html=1;" vertex="1" parent="1">
          <mxGeometry x="600" y="930" width="80" height="10" as="geometry" />
        </mxCell>
        <mxCell id="YcGbDRL9qxOUymfW_lWf-479" value="" style="rounded=0;whiteSpace=wrap;html=1;" vertex="1" parent="1">
          <mxGeometry x="600" y="950" width="80" height="10" as="geometry" />
        </mxCell>
        <mxCell id="YcGbDRL9qxOUymfW_lWf-480" value="" style="rounded=0;whiteSpace=wrap;html=1;" vertex="1" parent="1">
          <mxGeometry x="600" y="970" width="80" height="20" as="geometry" />
        </mxCell>
        <mxCell id="YcGbDRL9qxOUymfW_lWf-481" value="" style="rounded=0;whiteSpace=wrap;html=1;" vertex="1" parent="1">
          <mxGeometry x="605" y="975" width="20" height="10" as="geometry" />
        </mxCell>
        <mxCell id="YcGbDRL9qxOUymfW_lWf-482" value="" style="rounded=0;whiteSpace=wrap;html=1;" vertex="1" parent="1">
          <mxGeometry x="635" y="975" width="10" height="10" as="geometry" />
        </mxCell>
        <mxCell id="YcGbDRL9qxOUymfW_lWf-483" value="" style="rounded=0;whiteSpace=wrap;html=1;" vertex="1" parent="1">
          <mxGeometry x="655" y="975" width="10" height="10" as="geometry" />
        </mxCell>
        <mxCell id="YcGbDRL9qxOUymfW_lWf-484" value="" style="rounded=0;whiteSpace=wrap;html=1;" vertex="1" parent="1">
          <mxGeometry x="140" y="1030" width="110" height="180" as="geometry" />
        </mxCell>
        <mxCell id="YcGbDRL9qxOUymfW_lWf-485" value="" style="rounded=0;whiteSpace=wrap;html=1;" vertex="1" parent="1">
          <mxGeometry x="150" y="1040" width="90" height="90" as="geometry" />
        </mxCell>
        <mxCell id="YcGbDRL9qxOUymfW_lWf-486" value="" style="rounded=0;whiteSpace=wrap;html=1;" vertex="1" parent="1">
          <mxGeometry x="155" y="1140" width="80" height="10" as="geometry" />
        </mxCell>
        <mxCell id="YcGbDRL9qxOUymfW_lWf-487" value="" style="rounded=0;whiteSpace=wrap;html=1;" vertex="1" parent="1">
          <mxGeometry x="155" y="1160" width="80" height="10" as="geometry" />
        </mxCell>
        <mxCell id="YcGbDRL9qxOUymfW_lWf-488" value="" style="rounded=0;whiteSpace=wrap;html=1;" vertex="1" parent="1">
          <mxGeometry x="155" y="1180" width="80" height="20" as="geometry" />
        </mxCell>
        <mxCell id="YcGbDRL9qxOUymfW_lWf-489" value="" style="rounded=0;whiteSpace=wrap;html=1;" vertex="1" parent="1">
          <mxGeometry x="160" y="1185" width="20" height="10" as="geometry" />
        </mxCell>
        <mxCell id="YcGbDRL9qxOUymfW_lWf-490" value="" style="rounded=0;whiteSpace=wrap;html=1;" vertex="1" parent="1">
          <mxGeometry x="190" y="1185" width="10" height="10" as="geometry" />
        </mxCell>
        <mxCell id="YcGbDRL9qxOUymfW_lWf-491" value="" style="rounded=0;whiteSpace=wrap;html=1;" vertex="1" parent="1">
          <mxGeometry x="210" y="1185" width="10" height="10" as="geometry" />
        </mxCell>
        <mxCell id="YcGbDRL9qxOUymfW_lWf-492" value="" style="rounded=0;whiteSpace=wrap;html=1;" vertex="1" parent="1">
          <mxGeometry x="275" y="1030" width="110" height="180" as="geometry" />
        </mxCell>
        <mxCell id="YcGbDRL9qxOUymfW_lWf-493" value="" style="rounded=0;whiteSpace=wrap;html=1;" vertex="1" parent="1">
          <mxGeometry x="285" y="1040" width="90" height="90" as="geometry" />
        </mxCell>
        <mxCell id="YcGbDRL9qxOUymfW_lWf-494" value="" style="rounded=0;whiteSpace=wrap;html=1;" vertex="1" parent="1">
          <mxGeometry x="290" y="1140" width="80" height="10" as="geometry" />
        </mxCell>
        <mxCell id="YcGbDRL9qxOUymfW_lWf-495" value="" style="rounded=0;whiteSpace=wrap;html=1;" vertex="1" parent="1">
          <mxGeometry x="290" y="1160" width="80" height="10" as="geometry" />
        </mxCell>
        <mxCell id="YcGbDRL9qxOUymfW_lWf-496" value="" style="rounded=0;whiteSpace=wrap;html=1;" vertex="1" parent="1">
          <mxGeometry x="290" y="1180" width="80" height="20" as="geometry" />
        </mxCell>
        <mxCell id="YcGbDRL9qxOUymfW_lWf-497" value="" style="rounded=0;whiteSpace=wrap;html=1;" vertex="1" parent="1">
          <mxGeometry x="295" y="1185" width="20" height="10" as="geometry" />
        </mxCell>
        <mxCell id="YcGbDRL9qxOUymfW_lWf-498" value="" style="rounded=0;whiteSpace=wrap;html=1;" vertex="1" parent="1">
          <mxGeometry x="325" y="1185" width="10" height="10" as="geometry" />
        </mxCell>
        <mxCell id="YcGbDRL9qxOUymfW_lWf-499" value="" style="rounded=0;whiteSpace=wrap;html=1;" vertex="1" parent="1">
          <mxGeometry x="345" y="1185" width="10" height="10" as="geometry" />
        </mxCell>
        <mxCell id="YcGbDRL9qxOUymfW_lWf-500" value="" style="rounded=0;whiteSpace=wrap;html=1;" vertex="1" parent="1">
          <mxGeometry x="450" y="1030" width="110" height="180" as="geometry" />
        </mxCell>
        <mxCell id="YcGbDRL9qxOUymfW_lWf-501" value="" style="rounded=0;whiteSpace=wrap;html=1;" vertex="1" parent="1">
          <mxGeometry x="460" y="1040" width="90" height="90" as="geometry" />
        </mxCell>
        <mxCell id="YcGbDRL9qxOUymfW_lWf-502" value="" style="rounded=0;whiteSpace=wrap;html=1;" vertex="1" parent="1">
          <mxGeometry x="465" y="1140" width="80" height="10" as="geometry" />
        </mxCell>
        <mxCell id="YcGbDRL9qxOUymfW_lWf-503" value="" style="rounded=0;whiteSpace=wrap;html=1;" vertex="1" parent="1">
          <mxGeometry x="465" y="1160" width="80" height="10" as="geometry" />
        </mxCell>
        <mxCell id="YcGbDRL9qxOUymfW_lWf-504" value="" style="rounded=0;whiteSpace=wrap;html=1;" vertex="1" parent="1">
          <mxGeometry x="465" y="1180" width="80" height="20" as="geometry" />
        </mxCell>
        <mxCell id="YcGbDRL9qxOUymfW_lWf-505" value="" style="rounded=0;whiteSpace=wrap;html=1;" vertex="1" parent="1">
          <mxGeometry x="470" y="1185" width="20" height="10" as="geometry" />
        </mxCell>
        <mxCell id="YcGbDRL9qxOUymfW_lWf-506" value="" style="rounded=0;whiteSpace=wrap;html=1;" vertex="1" parent="1">
          <mxGeometry x="500" y="1185" width="10" height="10" as="geometry" />
        </mxCell>
        <mxCell id="YcGbDRL9qxOUymfW_lWf-507" value="" style="rounded=0;whiteSpace=wrap;html=1;" vertex="1" parent="1">
          <mxGeometry x="520" y="1185" width="10" height="10" as="geometry" />
        </mxCell>
        <mxCell id="YcGbDRL9qxOUymfW_lWf-532" value="" style="rounded=0;whiteSpace=wrap;html=1;" vertex="1" parent="1">
          <mxGeometry x="585" y="1030" width="110" height="180" as="geometry" />
        </mxCell>
        <mxCell id="YcGbDRL9qxOUymfW_lWf-533" value="" style="rounded=0;whiteSpace=wrap;html=1;" vertex="1" parent="1">
          <mxGeometry x="595" y="1040" width="90" height="90" as="geometry" />
        </mxCell>
        <mxCell id="YcGbDRL9qxOUymfW_lWf-534" value="" style="rounded=0;whiteSpace=wrap;html=1;" vertex="1" parent="1">
          <mxGeometry x="600" y="1140" width="80" height="10" as="geometry" />
        </mxCell>
        <mxCell id="YcGbDRL9qxOUymfW_lWf-535" value="" style="rounded=0;whiteSpace=wrap;html=1;" vertex="1" parent="1">
          <mxGeometry x="600" y="1160" width="80" height="10" as="geometry" />
        </mxCell>
        <mxCell id="YcGbDRL9qxOUymfW_lWf-536" value="" style="rounded=0;whiteSpace=wrap;html=1;" vertex="1" parent="1">
          <mxGeometry x="600" y="1180" width="80" height="20" as="geometry" />
        </mxCell>
        <mxCell id="YcGbDRL9qxOUymfW_lWf-537" value="" style="rounded=0;whiteSpace=wrap;html=1;" vertex="1" parent="1">
          <mxGeometry x="605" y="1185" width="20" height="10" as="geometry" />
        </mxCell>
        <mxCell id="YcGbDRL9qxOUymfW_lWf-538" value="" style="rounded=0;whiteSpace=wrap;html=1;" vertex="1" parent="1">
          <mxGeometry x="635" y="1185" width="10" height="10" as="geometry" />
        </mxCell>
        <mxCell id="YcGbDRL9qxOUymfW_lWf-539" value="" style="rounded=0;whiteSpace=wrap;html=1;" vertex="1" parent="1">
          <mxGeometry x="655" y="1185" width="10" height="10" as="geometry" />
        </mxCell>
        <mxCell id="YcGbDRL9qxOUymfW_lWf-540" value="" style="rounded=0;whiteSpace=wrap;html=1;" vertex="1" parent="1">
          <mxGeometry x="140" y="1230" width="110" height="180" as="geometry" />
        </mxCell>
        <mxCell id="YcGbDRL9qxOUymfW_lWf-541" value="" style="rounded=0;whiteSpace=wrap;html=1;" vertex="1" parent="1">
          <mxGeometry x="150" y="1240" width="90" height="90" as="geometry" />
        </mxCell>
        <mxCell id="YcGbDRL9qxOUymfW_lWf-542" value="" style="rounded=0;whiteSpace=wrap;html=1;" vertex="1" parent="1">
          <mxGeometry x="155" y="1340" width="80" height="10" as="geometry" />
        </mxCell>
        <mxCell id="YcGbDRL9qxOUymfW_lWf-543" value="" style="rounded=0;whiteSpace=wrap;html=1;" vertex="1" parent="1">
          <mxGeometry x="155" y="1360" width="80" height="10" as="geometry" />
        </mxCell>
        <mxCell id="YcGbDRL9qxOUymfW_lWf-544" value="" style="rounded=0;whiteSpace=wrap;html=1;" vertex="1" parent="1">
          <mxGeometry x="155" y="1380" width="80" height="20" as="geometry" />
        </mxCell>
        <mxCell id="YcGbDRL9qxOUymfW_lWf-545" value="" style="rounded=0;whiteSpace=wrap;html=1;" vertex="1" parent="1">
          <mxGeometry x="160" y="1385" width="20" height="10" as="geometry" />
        </mxCell>
        <mxCell id="YcGbDRL9qxOUymfW_lWf-546" value="" style="rounded=0;whiteSpace=wrap;html=1;" vertex="1" parent="1">
          <mxGeometry x="190" y="1385" width="10" height="10" as="geometry" />
        </mxCell>
        <mxCell id="YcGbDRL9qxOUymfW_lWf-547" value="" style="rounded=0;whiteSpace=wrap;html=1;" vertex="1" parent="1">
          <mxGeometry x="210" y="1385" width="10" height="10" as="geometry" />
        </mxCell>
        <mxCell id="YcGbDRL9qxOUymfW_lWf-548" value="" style="rounded=0;whiteSpace=wrap;html=1;" vertex="1" parent="1">
          <mxGeometry x="275" y="1230" width="110" height="180" as="geometry" />
        </mxCell>
        <mxCell id="YcGbDRL9qxOUymfW_lWf-549" value="" style="rounded=0;whiteSpace=wrap;html=1;" vertex="1" parent="1">
          <mxGeometry x="285" y="1240" width="90" height="90" as="geometry" />
        </mxCell>
        <mxCell id="YcGbDRL9qxOUymfW_lWf-550" value="" style="rounded=0;whiteSpace=wrap;html=1;" vertex="1" parent="1">
          <mxGeometry x="290" y="1340" width="80" height="10" as="geometry" />
        </mxCell>
        <mxCell id="YcGbDRL9qxOUymfW_lWf-551" value="" style="rounded=0;whiteSpace=wrap;html=1;" vertex="1" parent="1">
          <mxGeometry x="290" y="1360" width="80" height="10" as="geometry" />
        </mxCell>
        <mxCell id="YcGbDRL9qxOUymfW_lWf-552" value="" style="rounded=0;whiteSpace=wrap;html=1;" vertex="1" parent="1">
          <mxGeometry x="290" y="1380" width="80" height="20" as="geometry" />
        </mxCell>
        <mxCell id="YcGbDRL9qxOUymfW_lWf-553" value="" style="rounded=0;whiteSpace=wrap;html=1;" vertex="1" parent="1">
          <mxGeometry x="295" y="1385" width="20" height="10" as="geometry" />
        </mxCell>
        <mxCell id="YcGbDRL9qxOUymfW_lWf-554" value="" style="rounded=0;whiteSpace=wrap;html=1;" vertex="1" parent="1">
          <mxGeometry x="325" y="1385" width="10" height="10" as="geometry" />
        </mxCell>
        <mxCell id="YcGbDRL9qxOUymfW_lWf-555" value="" style="rounded=0;whiteSpace=wrap;html=1;" vertex="1" parent="1">
          <mxGeometry x="345" y="1385" width="10" height="10" as="geometry" />
        </mxCell>
        <mxCell id="YcGbDRL9qxOUymfW_lWf-556" value="" style="rounded=0;whiteSpace=wrap;html=1;" vertex="1" parent="1">
          <mxGeometry x="450" y="1230" width="110" height="180" as="geometry" />
        </mxCell>
        <mxCell id="YcGbDRL9qxOUymfW_lWf-557" value="" style="rounded=0;whiteSpace=wrap;html=1;" vertex="1" parent="1">
          <mxGeometry x="460" y="1240" width="90" height="90" as="geometry" />
        </mxCell>
        <mxCell id="YcGbDRL9qxOUymfW_lWf-558" value="" style="rounded=0;whiteSpace=wrap;html=1;" vertex="1" parent="1">
          <mxGeometry x="465" y="1340" width="80" height="10" as="geometry" />
        </mxCell>
        <mxCell id="YcGbDRL9qxOUymfW_lWf-559" value="" style="rounded=0;whiteSpace=wrap;html=1;" vertex="1" parent="1">
          <mxGeometry x="465" y="1360" width="80" height="10" as="geometry" />
        </mxCell>
        <mxCell id="YcGbDRL9qxOUymfW_lWf-560" value="" style="rounded=0;whiteSpace=wrap;html=1;" vertex="1" parent="1">
          <mxGeometry x="465" y="1380" width="80" height="20" as="geometry" />
        </mxCell>
        <mxCell id="YcGbDRL9qxOUymfW_lWf-561" value="" style="rounded=0;whiteSpace=wrap;html=1;" vertex="1" parent="1">
          <mxGeometry x="470" y="1385" width="20" height="10" as="geometry" />
        </mxCell>
        <mxCell id="YcGbDRL9qxOUymfW_lWf-562" value="" style="rounded=0;whiteSpace=wrap;html=1;" vertex="1" parent="1">
          <mxGeometry x="500" y="1385" width="10" height="10" as="geometry" />
        </mxCell>
        <mxCell id="YcGbDRL9qxOUymfW_lWf-563" value="" style="rounded=0;whiteSpace=wrap;html=1;" vertex="1" parent="1">
          <mxGeometry x="520" y="1385" width="10" height="10" as="geometry" />
        </mxCell>
        <mxCell id="YcGbDRL9qxOUymfW_lWf-564" value="" style="rounded=0;whiteSpace=wrap;html=1;" vertex="1" parent="1">
          <mxGeometry x="580" y="1230" width="110" height="180" as="geometry" />
        </mxCell>
        <mxCell id="YcGbDRL9qxOUymfW_lWf-565" value="" style="rounded=0;whiteSpace=wrap;html=1;" vertex="1" parent="1">
          <mxGeometry x="590" y="1240" width="90" height="90" as="geometry" />
        </mxCell>
        <mxCell id="YcGbDRL9qxOUymfW_lWf-566" value="" style="rounded=0;whiteSpace=wrap;html=1;" vertex="1" parent="1">
          <mxGeometry x="595" y="1340" width="80" height="10" as="geometry" />
        </mxCell>
        <mxCell id="YcGbDRL9qxOUymfW_lWf-567" value="" style="rounded=0;whiteSpace=wrap;html=1;" vertex="1" parent="1">
          <mxGeometry x="595" y="1360" width="80" height="10" as="geometry" />
        </mxCell>
        <mxCell id="YcGbDRL9qxOUymfW_lWf-568" value="" style="rounded=0;whiteSpace=wrap;html=1;" vertex="1" parent="1">
          <mxGeometry x="595" y="1380" width="80" height="20" as="geometry" />
        </mxCell>
        <mxCell id="YcGbDRL9qxOUymfW_lWf-569" value="" style="rounded=0;whiteSpace=wrap;html=1;" vertex="1" parent="1">
          <mxGeometry x="600" y="1385" width="20" height="10" as="geometry" />
        </mxCell>
        <mxCell id="YcGbDRL9qxOUymfW_lWf-570" value="" style="rounded=0;whiteSpace=wrap;html=1;" vertex="1" parent="1">
          <mxGeometry x="630" y="1385" width="10" height="10" as="geometry" />
        </mxCell>
        <mxCell id="YcGbDRL9qxOUymfW_lWf-571" value="" style="rounded=0;whiteSpace=wrap;html=1;" vertex="1" parent="1">
          <mxGeometry x="650" y="1385" width="10" height="10" as="geometry" />
        </mxCell>
        <mxCell id="YcGbDRL9qxOUymfW_lWf-572" value="" style="rounded=0;whiteSpace=wrap;html=1;" vertex="1" parent="1">
          <mxGeometry x="130" y="1470" width="580" height="90" as="geometry" />
        </mxCell>
        <mxCell id="YcGbDRL9qxOUymfW_lWf-574" value="1" style="rounded=0;whiteSpace=wrap;html=1;" vertex="1" parent="1">
          <mxGeometry x="340" y="1500" width="25" height="15" as="geometry" />
        </mxCell>
        <mxCell id="YcGbDRL9qxOUymfW_lWf-575" value="2" style="rounded=0;whiteSpace=wrap;html=1;" vertex="1" parent="1">
          <mxGeometry x="372.5" y="1500" width="25" height="15" as="geometry" />
        </mxCell>
        <mxCell id="YcGbDRL9qxOUymfW_lWf-576" value="3" style="rounded=0;whiteSpace=wrap;html=1;" vertex="1" parent="1">
          <mxGeometry x="405" y="1500" width="25" height="15" as="geometry" />
        </mxCell>
        <mxCell id="YcGbDRL9qxOUymfW_lWf-577" value="4" style="rounded=0;whiteSpace=wrap;html=1;" vertex="1" parent="1">
          <mxGeometry x="435" y="1500" width="25" height="15" as="geometry" />
        </mxCell>
        <mxCell id="YcGbDRL9qxOUymfW_lWf-578" value="5" style="rounded=0;whiteSpace=wrap;html=1;" vertex="1" parent="1">
          <mxGeometry x="465" y="1500" width="25" height="15" as="geometry" />
        </mxCell>
        <mxCell id="YcGbDRL9qxOUymfW_lWf-579" value="6" style="rounded=0;whiteSpace=wrap;html=1;" vertex="1" parent="1">
          <mxGeometry x="490" y="1500" width="25" height="15" as="geometry" />
        </mxCell>
        <mxCell id="YcGbDRL9qxOUymfW_lWf-580" value="7" style="rounded=0;whiteSpace=wrap;html=1;" vertex="1" parent="1">
          <mxGeometry x="520" y="1500" width="25" height="15" as="geometry" />
        </mxCell>
        <mxCell id="YcGbDRL9qxOUymfW_lWf-581" value="8" style="rounded=0;whiteSpace=wrap;html=1;" vertex="1" parent="1">
          <mxGeometry x="550" y="1500" width="25" height="15" as="geometry" />
        </mxCell>
        <mxCell id="YcGbDRL9qxOUymfW_lWf-583" style="edgeStyle=orthogonalEdgeStyle;rounded=0;orthogonalLoop=1;jettySize=auto;html=1;exitX=0.5;exitY=1;exitDx=0;exitDy=0;entryX=0.75;entryY=1;entryDx=0;entryDy=0;" edge="1" parent="1" source="YcGbDRL9qxOUymfW_lWf-581" target="YcGbDRL9qxOUymfW_lWf-581">
          <mxGeometry relative="1" as="geometry" />
        </mxCell>
        <mxCell id="YcGbDRL9qxOUymfW_lWf-584" value="prev" style="rounded=0;whiteSpace=wrap;html=1;" vertex="1" parent="1">
          <mxGeometry x="275" y="1492.5" width="50" height="30" as="geometry" />
        </mxCell>
        <mxCell id="YcGbDRL9qxOUymfW_lWf-585" value="next" style="rounded=0;whiteSpace=wrap;html=1;" vertex="1" parent="1">
          <mxGeometry x="595" y="1492.5" width="50" height="30" as="geometry" />
        </mxCell>
        <mxCell id="YcGbDRL9qxOUymfW_lWf-586" value="page 1 to 100" style="rounded=0;whiteSpace=wrap;html=1;" vertex="1" parent="1">
          <mxGeometry x="140" y="1500" width="120" height="20" as="geometry" />
        </mxCell>
        <mxCell id="YcGbDRL9qxOUymfW_lWf-587" value="" style="rounded=0;whiteSpace=wrap;html=1;" vertex="1" parent="1">
          <mxGeometry x="-160" y="1690" width="930" height="730" as="geometry" />
        </mxCell>
        <mxCell id="YcGbDRL9qxOUymfW_lWf-588" value="" style="rounded=0;whiteSpace=wrap;html=1;" vertex="1" parent="1">
          <mxGeometry x="-140" y="1710" width="890" height="450" as="geometry" />
        </mxCell>
        <mxCell id="YcGbDRL9qxOUymfW_lWf-607" value="online shoping (list)" style="rounded=0;whiteSpace=wrap;html=1;" vertex="1" parent="1">
          <mxGeometry x="-130" y="1730" width="120" height="410" as="geometry" />
        </mxCell>
        <mxCell id="YcGbDRL9qxOUymfW_lWf-608" value="Customer policy (list)" style="rounded=0;whiteSpace=wrap;html=1;" vertex="1" parent="1">
          <mxGeometry x="10" y="1730" width="120" height="410" as="geometry" />
        </mxCell>
        <mxCell id="YcGbDRL9qxOUymfW_lWf-609" value="" style="rounded=0;whiteSpace=wrap;html=1;" vertex="1" parent="1">
          <mxGeometry x="155" y="1730" width="305" height="230" as="geometry" />
        </mxCell>
        <mxCell id="YcGbDRL9qxOUymfW_lWf-610" value="" style="rounded=0;whiteSpace=wrap;html=1;" vertex="1" parent="1">
          <mxGeometry x="180" y="1740" width="245" height="30" as="geometry" />
        </mxCell>
        <mxCell id="YcGbDRL9qxOUymfW_lWf-611" value="" style="rounded=0;whiteSpace=wrap;html=1;" vertex="1" parent="1">
          <mxGeometry x="180" y="1790" width="245" height="30" as="geometry" />
        </mxCell>
        <mxCell id="YcGbDRL9qxOUymfW_lWf-612" value="" style="rounded=0;whiteSpace=wrap;html=1;" vertex="1" parent="1">
          <mxGeometry x="180" y="1830" width="245" height="50" as="geometry" />
        </mxCell>
        <mxCell id="YcGbDRL9qxOUymfW_lWf-613" value="" style="rounded=0;whiteSpace=wrap;html=1;" vertex="1" parent="1">
          <mxGeometry x="180" y="1890" width="245" height="50" as="geometry" />
        </mxCell>
        <mxCell id="YcGbDRL9qxOUymfW_lWf-614" value="" style="rounded=0;whiteSpace=wrap;html=1;" vertex="1" parent="1">
          <mxGeometry x="205" y="1845" width="70" height="20" as="geometry" />
        </mxCell>
        <mxCell id="YcGbDRL9qxOUymfW_lWf-615" value="" style="rounded=0;whiteSpace=wrap;html=1;" vertex="1" parent="1">
          <mxGeometry x="325" y="1845" width="70" height="20" as="geometry" />
        </mxCell>
        <mxCell id="YcGbDRL9qxOUymfW_lWf-616" value="" style="rounded=0;whiteSpace=wrap;html=1;" vertex="1" parent="1">
          <mxGeometry x="190" y="1905" width="30" height="20" as="geometry" />
        </mxCell>
        <mxCell id="YcGbDRL9qxOUymfW_lWf-617" value="" style="rounded=0;whiteSpace=wrap;html=1;" vertex="1" parent="1">
          <mxGeometry x="367.5" y="1905" width="30" height="20" as="geometry" />
        </mxCell>
        <mxCell id="YcGbDRL9qxOUymfW_lWf-618" value="" style="rounded=0;whiteSpace=wrap;html=1;" vertex="1" parent="1">
          <mxGeometry x="240" y="1905" width="30" height="20" as="geometry" />
        </mxCell>
        <mxCell id="YcGbDRL9qxOUymfW_lWf-619" value="" style="rounded=0;whiteSpace=wrap;html=1;" vertex="1" parent="1">
          <mxGeometry x="305" y="1905" width="30" height="20" as="geometry" />
        </mxCell>
        <mxCell id="YcGbDRL9qxOUymfW_lWf-620" value="" style="rounded=0;whiteSpace=wrap;html=1;" vertex="1" parent="1">
          <mxGeometry x="480" y="1730" width="260" height="230" as="geometry" />
        </mxCell>
        <mxCell id="YcGbDRL9qxOUymfW_lWf-622" value="" style="rounded=0;whiteSpace=wrap;html=1;" vertex="1" parent="1">
          <mxGeometry x="490" y="1740" width="230" height="100" as="geometry" />
        </mxCell>
        <mxCell id="YcGbDRL9qxOUymfW_lWf-623" value="" style="rounded=0;whiteSpace=wrap;html=1;" vertex="1" parent="1">
          <mxGeometry x="490" y="1850" width="230" height="90" as="geometry" />
        </mxCell>
        <mxCell id="YcGbDRL9qxOUymfW_lWf-624" value="" style="rounded=0;whiteSpace=wrap;html=1;" vertex="1" parent="1">
          <mxGeometry x="503.75" y="1775" width="57.5" height="30" as="geometry" />
        </mxCell>
        <mxCell id="YcGbDRL9qxOUymfW_lWf-625" value="" style="rounded=0;whiteSpace=wrap;html=1;" vertex="1" parent="1">
          <mxGeometry x="580" y="1775" width="110" height="30" as="geometry" />
        </mxCell>
        <mxCell id="YcGbDRL9qxOUymfW_lWf-626" value="" style="rounded=0;whiteSpace=wrap;html=1;" vertex="1" parent="1">
          <mxGeometry x="510" y="1880" width="57.5" height="30" as="geometry" />
        </mxCell>
        <mxCell id="YcGbDRL9qxOUymfW_lWf-627" value="" style="rounded=0;whiteSpace=wrap;html=1;" vertex="1" parent="1">
          <mxGeometry x="586.25" y="1880" width="110" height="30" as="geometry" />
        </mxCell>
        <mxCell id="YcGbDRL9qxOUymfW_lWf-628" value="POPULAR SEARCHE" style="rounded=0;whiteSpace=wrap;html=1;align=left;" vertex="1" parent="1">
          <mxGeometry x="-140" y="2180" width="890" height="30" as="geometry" />
        </mxCell>
        <mxCell id="YcGbDRL9qxOUymfW_lWf-630" style="edgeStyle=orthogonalEdgeStyle;rounded=0;orthogonalLoop=1;jettySize=auto;html=1;exitX=0.5;exitY=1;exitDx=0;exitDy=0;" edge="1" parent="1" source="YcGbDRL9qxOUymfW_lWf-628" target="YcGbDRL9qxOUymfW_lWf-628">
          <mxGeometry relative="1" as="geometry" />
        </mxCell>
        <mxCell id="YcGbDRL9qxOUymfW_lWf-631" value="Adidas  Arrow  Fila  Online Shopping  Nike  Pepe Jeans  Puma  United Colors Of Benetton  Fastrack  Shorts  Being Human  Skirts  Woodland  Supra  Dresses  Clothing  Jewellery  T Shirts  Shoes  Bags  Watches  Caps  Shirts  Backpacks  Flip Flops  Sunglasses  Kurtas  Lingerie  Jackets  Skechers  Saree  Sandals  Puma Tshirts  Woodland Shoes  Titan Watches  Fastrack Watches  Wrangler Shirts  Adidas Tshirts  Nike Shoes  Roadster Shirts  Casual Shoes  Running Shoes  Nike Sports Shoes  Jeans  Being Human Tshirts  Converse Shoes  Cricket Shoes" style="rounded=0;whiteSpace=wrap;html=1;" vertex="1" parent="1">
          <mxGeometry x="-140" y="2240" width="890" height="70" as="geometry" />
        </mxCell>
        <mxCell id="YcGbDRL9qxOUymfW_lWf-632" value="" style="rounded=0;whiteSpace=wrap;html=1;" vertex="1" parent="1">
          <mxGeometry x="-140" y="2330" width="890" height="50" as="geometry" />
        </mxCell>
        <mxCell id="YcGbDRL9qxOUymfW_lWf-633" value="In case of any concern,&amp;nbsp;&lt;a style=&quot;box-sizing: inherit; background-color: rgb(250, 251, 252); text-decoration-line: none; color: rgb(82, 108, 208); outline-width: 0px; font-weight: 700; font-family: Assistant, -apple-system, BlinkMacSystemFont, &amp;quot;Segoe UI&amp;quot;, Roboto, Helvetica, Arial, sans-serif; font-size: medium; text-align: start;&quot; data-reactid=&quot;322&quot; href=&quot;https://www.myntra.com/contactus&quot;&gt;Contact Us&lt;/a&gt;" style="rounded=0;whiteSpace=wrap;html=1;" vertex="1" parent="1">
          <mxGeometry x="-120" y="2340" width="270" height="30" as="geometry" />
        </mxCell>
        <mxCell id="YcGbDRL9qxOUymfW_lWf-634" value="©&amp;nbsp;&lt;span style=&quot;color: rgb(148, 150, 159); font-family: Assistant, -apple-system, BlinkMacSystemFont, &amp;quot;Segoe UI&amp;quot;, Roboto, Helvetica, Arial, sans-serif; font-size: medium; text-align: end; background-color: rgb(250, 251, 252);&quot;&gt;2023&lt;/span&gt;&lt;span style=&quot;color: rgb(148, 150, 159); font-family: Assistant, -apple-system, BlinkMacSystemFont, &amp;quot;Segoe UI&amp;quot;, Roboto, Helvetica, Arial, sans-serif; font-size: medium; text-align: end; background-color: rgb(250, 251, 252);&quot;&gt;&amp;nbsp;www.myntra.com. All rights reserved.&lt;/span&gt;" style="rounded=0;whiteSpace=wrap;html=1;" vertex="1" parent="1">
          <mxGeometry x="370" y="2340" width="350" height="30" as="geometry" />
        </mxCell>
      </root>
    </mxGraphModel>
  </diagram>
</mxfile>
